<?xml version="1.0" encoding="UTF-8"?>
<svg width="64" height="64" version="1.1" viewBox="0 0 16.933 16.933" xmlns="http://www.w3.org/2000/svg">
<g transform="translate(27.469 -37.61)" fill="#e6e6e6" stroke-linecap="round">
<path d="m-26.378 38.701h14.75" color="#000000" stroke-width="2.1833" style="-inkscape-stroke:none"/>
<path d="m-26.377 37.609a1.0916 1.0916 0 0 0-1.0918 1.0918 1.0916 1.0916 0 0 0 1.0918 1.0918h14.75a1.0916 1.0916 0 0 0 1.0918-1.0918 1.0916 1.0916 0 0 0-1.0918-1.0918z" color="#000000" style="-inkscape-stroke:none"/>
<path d="m-26.378 46.076h14.75" color="#000000" stroke-width="2.1833" style="-inkscape-stroke:none"/>
<path d="m-26.377 44.984a1.0916 1.0916 0 0 0-1.0918 1.0918 1.0916 1.0916 0 0 0 1.0918 1.0918h14.75a1.0916 1.0916 0 0 0 1.0918-1.0918 1.0916 1.0916 0 0 0-1.0918-1.0918z" color="#000000" style="-inkscape-stroke:none"/>
<path d="m-26.378 53.451h14.75" color="#000000" stroke-width="2.1833" style="-inkscape-stroke:none"/>
<path d="m-26.377 52.359a1.0916 1.0916 0 0 0-1.0918 1.0918 1.0916 1.0916 0 0 0 1.0918 1.0918h14.75a1.0916 1.0916 0 0 0 1.0918-1.0918 1.0916 1.0916 0 0 0-1.0918-1.0918z" color="#000000" style="-inkscape-stroke:none"/>
</g>
</svg>
