<?xml version="1.0" encoding="UTF-8"?>
<svg width="64" height="64" version="1.1" viewBox="0 0 16.933 16.933" xmlns="http://www.w3.org/2000/svg">
<g transform="matrix(.26458 0 0 .26458 6.2265 -21.762)">
<circle cx="8.4667" cy="114.25" r="31.559" fill="#fff" stroke="#000" stroke-linecap="round" stroke-width=".88273" style="paint-order:fill markers stroke"/>
<path transform="scale(.26458)" d="m31.842 346.17a54.203 54.203 0 0 0-54.203 54.203 54.203 54.203 0 0 0 28.289 47.566c-4.5834 1.2368-9.1387 2.798-13.629 4.75-15.349 7.9339-25.337 33.739-30.564 75.41a119.28 119.28 0 0 0 70.266 22.996 119.28 119.28 0 0 0 69.451-22.395c-7.8133-33.596-14.954-69.538-30.543-75.92-4.3427-1.8832-8.829-3.4473-13.412-4.7012a54.203 54.203 0 0 0 28.549-47.707 54.203 54.203 0 0 0-54.203-54.203z" style="paint-order:fill markers stroke"/>
</g>
</svg>
